<svg style="position: absolute; width: 0; height: 0; overflow: hidden;" version="1.1" xmlns="http://www.w3.org/2000/svg" xmlns:xlink="http://www.w3.org/1999/xlink">
<defs>
<symbol id="icon-facebook-icon" viewBox="0 0 32 32">
<title>facebook-icon</title>
<path class="path1" fill="#8b603c" d="M31.353 32h-30.713c-0.356 0-0.64-0.284-0.64-0.64v-30.72c0-0.356 0.284-0.64 0.64-0.64h30.713c0.356 0 0.64 0.284 0.64 0.64v30.713c0.007 0.356-0.284 0.647-0.64 0.647z"></path>
<path class="path2" fill="#fff" d="M17.913 30.919h-5.092c-0.149 0-0.27-0.121-0.27-0.27v-12.907c0-0.149-0.121-0.27-0.27-0.27h-3.897c-0.149 0-0.27-0.121-0.27-0.27v-4.779c0-0.149 0.121-0.27 0.27-0.27h3.89c0.156 0 0.277-0.128 0.27-0.284-0.064-1.308-0.213-6.763 1.714-8.498 2.169-1.941 3.662-2.468 9.109-1.963 0.142 0.014 0.249 0.128 0.249 0.27v4.181c0 0.171-0.156 0.299-0.32 0.27-0.91-0.171-3.492-0.476-4.366 1.301-0.683 1.401-0.747 3.591-0.74 4.345 0 0.149 0.121 0.27 0.263 0.27l4.558 0.107c0.156 0.007 0.277 0.142 0.263 0.299l-0.484 4.722c-0.014 0.135-0.128 0.242-0.27 0.242h-3.925c-0.149 0-0.27 0.121-0.27 0.27l-0.142 12.964c0 0.149-0.121 0.27-0.27 0.27z"></path>
</symbol>
<symbol id="icon-linkedin-icon" viewBox="0 0 32 32">
<title>linkedin-icon</title>
<path class="path1" fill="#8b603c" d="M30.589 32h-29.178c-0.78 0-1.411-0.631-1.411-1.411v-29.178c0-0.78 0.631-1.411 1.411-1.411h29.178c0.78 0 1.411 0.631 1.411 1.411v29.178c0 0.78-0.631 1.411-1.411 1.411z"></path>
<path class="path2" fill="#fff" d="M29.328 26.426h-5.127c-0.115 0-0.195-0.092-0.195-0.195v-0.436c0-2.753 0.011-5.505-0.011-8.258 0-0.585-0.069-1.193-0.218-1.755-0.528-1.996-2.799-2.707-4.416-1.388-0.78 0.642-1.193 1.457-1.193 2.489 0.011 2.948 0 5.884 0 8.832 0 0.149 0 0.298 0 0.47 0 0.115-0.092 0.206-0.206 0.206h-5.081c-0.115 0-0.195-0.092-0.195-0.195v-16.172c0-0.115 0.092-0.195 0.195-0.195h5.058c0.115 0 0.195 0.092 0.195 0.195v1.525c0 0.195 0.241 0.264 0.356 0.115v0c1.422-1.95 3.406-2.477 5.677-2.191 2.248 0.287 3.865 1.502 4.668 3.636 0.333 0.872 0.459 1.824 0.677 2.741 0 0.011 0 0.034 0 0.046v10.334c0.011 0.103-0.080 0.195-0.183 0.195z"></path>
<path class="path3" fill="#fff" d="M4.083 26.196v-16.161c0-0.115 0.092-0.195 0.195-0.195h5.058c0.115 0 0.195 0.092 0.195 0.195v16.161c0 0.115-0.092 0.195-0.195 0.195h-5.058c-0.103 0-0.195-0.080-0.195-0.195z"></path>
<path class="path4" fill="#fff" d="M9.852 5.092c0 1.679-1.361 3.039-3.039 3.039s-3.039-1.361-3.039-3.039c0-1.679 1.361-3.039 3.039-3.039s3.039 1.361 3.039 3.039z"></path>
</symbol>
<symbol id="icon-twitter-icon" viewBox="0 0 32 32">
<title>twitter-icon</title>
<path class="path1" fill="#8b603c" d="M30.342 32h-28.683c-0.914 0-1.658-0.744-1.658-1.658v-28.683c0-0.914 0.744-1.658 1.658-1.658h28.683c0.914 0 1.658 0.744 1.658 1.658v28.683c0 0.914-0.744 1.658-1.658 1.658z"></path>
<path class="path2" fill="#fff" d="M2.743 26.132c0-0.064 0.51 0 0.744-0.021 4.253-0.191 6.421-1.999 6.719-2.381-1.34-0.255-2.594-0.659-3.53-1.658-0.213-0.234-0.447-0.468-0.638-0.723-0.829-1.127-0.765-1.297 0.553-1.446 0.234-0.021 0.489-0.085 0.872-0.17-0.872-0.447-1.658-0.723-2.296-1.318-0.957-0.914-1.552-1.999-1.807-3.296-0.128-0.638-0.085-0.999 0.68-0.638 0.383 0.191 0.787 0.298 1.297 0.085-0.978-1.021-1.722-2.126-1.935-3.551-0.149-0.957 0.021-1.829 0.276-2.7 0.234-0.787 0.532-0.744 1.042-0.17 2.233 2.403 4.933 3.976 8.122 4.742 0.213 0.043 0.404 0.106 0.617 0.128 0.595 0.085 1.255 0.298 1.765 0.149 0.595-0.149 0.276-1.488 0.361-2.041 0.361-2.19 1.212-3.402 3.296-4.274 2.041-0.851 3.976-0.532 5.677 0.829 0.489 0.383 0.893 0.468 1.446 0.255 0.787-0.319 1.573-0.595 2.488-0.914-0.319 1.191-1.042 1.935-2.020 2.743 0.957 0.064 1.658-0.404 2.445-0.468 0.043 0.043 0.064 0.064 0.106 0.106-0.383 0.829-1.084 1.403-1.744 1.956-0.489 0.404-0.638 0.829-0.638 1.446-0.106 9.27-7.846 16.393-17.052 15.67-2.233-0.17-3.934-0.574-6.23-1.956-0.213-0.128-0.425-0.255-0.617-0.383 0 0 0 0.064 0 0z"></path>
<path class="path3" fill="#fff" d="M28.917 9.292c0.064-0.085 0.149-0.149 0.234-0.021 0 0.021-0.085 0.085-0.128 0.128-0.021-0.021-0.064-0.064-0.106-0.106z"></path>
</symbol>
<symbol id="icon-bg-img" viewBox="0 0 50 32">
<title>bg-img</title>
<path class="path1" fill="#3b2517" d="M21.296 14.127l-3.114 1.508-0.551 0.584 4.606 4.541 2.092-3.52-1.119-1.152-1.914-1.963z"></path>
<path class="path2" fill="#3b2517" d="M22.577 16.706l-0.341 0.795-0.292 8.255 5.271 1.216v-0.633l0.243-8.353-4.882-1.281z"></path>
<path class="path3" fill="#3b2517" d="M19.073 18.035l2.919 2.968v0.6l-4.59 2.141-2.919-2.855 0.389-1.444 4.201-1.411z"></path>
<path class="path4" fill="#3b2517" d="M43.759 3.228l-3.114 1.508-0.535 0.584 4.59 4.541 2.092-3.519-1.119-1.168-1.914-1.946z"></path>
<path class="path5" fill="#3b2517" d="M45.040 5.806l-0.341 0.779-0.292 8.255 5.271 1.233v-0.633l0.243-8.369-4.882-1.265z"></path>
<path class="path6" fill="#3b2517" d="M41.537 7.136l2.919 2.968v0.584l-4.59 2.157-2.919-2.855 0.389-1.444 4.201-1.411z"></path>
<path class="path7" fill="#3b2517" d="M6.99 1.054l-3.13 1.508-0.535 0.584 4.59 4.541 2.108-3.503-1.135-1.168-1.898-1.962z"></path>
<path class="path8" fill="#3b2517" d="M8.255 3.633l-0.341 0.795-0.292 8.255 5.271 1.216v-0.633l0.243-8.353-4.882-1.281z"></path>
<path class="path9" fill="#3b2517" d="M4.752 4.963l2.936 2.968v0.584l-4.59 2.157-2.936-2.855 0.389-1.444 4.201-1.411z"></path>
<path class="path10" fill="#8b603c" d="M0.146 27.605l6.147 3.292 2.79-2.757s1.508-2.595 0.616-3.341-4.833-2.627-5.239-2.627-3.26 2.757-3.519 3.309-0.795 2.125-0.795 2.125z"></path>
<path class="path11" fill="#8b603c" d="M7.234 22.869l5.093 0.876s0.665-1.135 0.665-1.573 0-2.968-0.405-3.438-4.476-1.168-4.768-0.957-0.843 1.719-0.843 2.011 0.26 3.082 0.26 3.082z"></path>
<path class="path12" fill="#8b603c" d="M9.261 29.032l5.563 2.968 2.563-2.676s0.843-1.752 0.843-2.498-4.541-2.855-5.060-2.887-2.936 2.498-3.211 3.017-0.697 2.076-0.697 2.076z"></path>
<path class="path13" fill="#8b603c" d="M29.827 26.486l6.147 3.292 2.79-2.757s1.508-2.595 0.616-3.341-4.833-2.644-5.239-2.644-3.26 2.741-3.52 3.292-0.795 2.157-0.795 2.157z"></path>
<path class="path14" fill="#8b603c" d="M36.914 21.75l5.093 0.876s0.665-1.135 0.665-1.573 0-2.968-0.405-3.438-4.476-1.168-4.768-0.957-0.843 1.719-0.843 2.011 0.26 3.082 0.26 3.082z"></path>
<path class="path15" fill="#8b603c" d="M38.942 27.913l5.563 2.968 2.563-2.676s0.843-1.752 0.843-2.498-4.541-2.855-5.060-2.887-2.936 2.498-3.211 3-0.697 2.092-0.697 2.092z"></path>
<path class="path16" fill="#8b603c" d="M15.992 9.861l6.163 3.292 2.79-2.741s1.508-2.595 0.616-3.325-4.833-2.644-5.239-2.644-3.26 2.757-3.52 3.309-0.811 2.108-0.811 2.108z"></path>
<path class="path17" fill="#8b603c" d="M23.080 5.141l5.093 0.876s0.665-1.135 0.665-1.573 0-2.968-0.405-3.438-4.476-1.184-4.768-0.957-0.843 1.719-0.843 2.027 0.259 3.065 0.259 3.065z"></path>
<path class="path18" fill="#8b603c" d="M25.107 11.288l5.563 2.968 2.579-2.676s0.843-1.752 0.843-2.498-4.541-2.855-5.060-2.887-2.919 2.498-3.195 3.001-0.73 2.092-0.73 2.092z"></path>
</symbol>
</defs>
</svg>
