<svg id="Layer_1" data-name="Layer 1" xmlns="http://www.w3.org/2000/svg" viewBox="0 0 308.71 197.26"><defs><style>.cls-1,.cls-3{fill:#3b2517;}.cls-2,.cls-5{fill:none;}.cls-2,.cls-3,.cls-5{stroke:#fff;stroke-miterlimit:10;}.cls-2,.cls-3{stroke-width:1.81px;}.cls-4{fill:#8b603c;}.cls-5{stroke-width:1.54px;}</style></defs><title>bg-img</title><polygon class="cls-1" points="131.33 87.08 112.06 96.42 108.74 100.03 137.05 128.04 150 106.35 143.05 99.18 131.33 87.08"/><line class="cls-2" x1="131.93" y1="109.37" x2="146.99" y2="98.82"/><polygon class="cls-3" points="139.16 103.04 137.05 107.86 135.25 158.76 167.77 166.28 167.77 162.37 169.28 110.87 139.16 103.04"/><line class="cls-3" x1="141.06" y1="131.65" x2="162.75" y2="134.66"/><polygon class="cls-3" points="117.57 111.17 135.64 129.54 135.64 133.16 107.33 146.41 89.26 128.79 91.67 119.91 117.57 111.17"/><polygon class="cls-1" points="269.84 19.86 250.57 29.19 247.26 32.8 275.57 60.81 288.52 39.13 281.56 31.95 269.84 19.86"/><line class="cls-2" x1="270.45" y1="42.14" x2="285.5" y2="31.6"/><polygon class="cls-3" points="277.67 35.82 275.57 40.63 273.76 91.53 306.28 99.06 306.28 95.15 307.79 43.65 277.67 35.82"/><line class="cls-3" x1="279.57" y1="64.43" x2="301.26" y2="67.44"/><polygon class="cls-3" points="256.08 43.95 274.15 62.32 274.15 65.93 245.84 79.18 227.77 61.57 230.18 52.68 256.08 43.95"/><polygon class="cls-1" points="43.08 6.47 23.81 15.81 20.49 19.43 48.8 47.43 61.75 25.75 54.8 18.57 43.08 6.47"/><line class="cls-2" x1="43.68" y1="28.76" x2="58.74" y2="18.22"/><polygon class="cls-3" points="50.91 22.44 48.8 27.25 47 78.15 79.52 85.68 79.52 81.77 81.03 30.27 50.91 22.44"/><line class="cls-3" x1="52.81" y1="51.05" x2="74.49" y2="54.06"/><polygon class="cls-3" points="29.32 30.57 47.39 48.94 47.39 52.55 19.08 65.8 1.01 48.19 3.42 39.3 29.32 30.57"/><path class="cls-4" d="M9.14,180.43l37.95,20.33,17.17-16.94s9.26-16,3.84-20.55S38.27,147,35.79,147s-20.1,16.94-21.68,20.33S9.14,180.43,9.14,180.43Z" transform="translate(-8.27 -10.27)"/><path class="cls-4" d="M52.85,151.29l31.4,5.42s4.07-7,4.07-9.71,0-18.3-2.48-21.23-27.56-7.23-29.36-5.87-5.2,10.62-5.2,12.42S52.85,151.29,52.85,151.29Z" transform="translate(-8.27 -10.27)"/><path class="cls-4" d="M65.38,189.24l34.33,18.3L115.52,191s5.2-10.84,5.2-15.36-28-17.62-31.17-17.84S71.49,173.2,69.79,176.36,65.38,189.24,65.38,189.24Z" transform="translate(-8.27 -10.27)"/><path class="cls-2" d="M100.84,186.75s8.81-4.29,7.91-10.39S95.42,184,91.13,178.62,99.78,173.2,100,170s-4.1-3.39-6.81-1.81-5.87,5.2-9,5.2-3.61-2.26-3.61-2.26" transform="translate(-8.27 -10.27)"/><path class="cls-2" d="M50.45,174.32s6.81-7,3.88-12.47-9.9,11.77-15.78,8.14,6.27-8.05,5.38-11.09-5-1.78-7,.63-3.74,6.89-6.72,8-4.17-.89-4.17-.89" transform="translate(-8.27 -10.27)"/><path class="cls-5" d="M63.15,138.63s-3.42-7.62.5-11.12,4.53,12.31,10.3,11.11-2.7-8.28-1.1-10.45,4.53,0,5.45,2.54,1,6.61,3.08,8.34,3.6.5,3.6.5" transform="translate(-8.27 -10.27)"/><path class="cls-4" d="M192.14,173.52l37.95,20.33,17.17-16.94s9.26-16,3.84-20.55-29.82-16.26-32.3-16.26-20.1,16.94-21.68,20.33S192.14,173.52,192.14,173.52Z" transform="translate(-8.27 -10.27)"/><path class="cls-4" d="M235.85,144.39l31.4,5.42s4.07-7,4.07-9.71,0-18.3-2.48-21.23-27.56-7.23-29.36-5.87-5.2,10.62-5.2,12.42S235.85,144.39,235.85,144.39Z" transform="translate(-8.27 -10.27)"/><path class="cls-4" d="M248.38,182.33l34.33,18.3,15.81-16.49s5.2-10.84,5.2-15.36-28-17.62-31.17-17.84-18.05,15.36-19.76,18.52S248.38,182.33,248.38,182.33Z" transform="translate(-8.27 -10.27)"/><path class="cls-2" d="M283.84,179.85s8.81-4.29,7.91-10.39-13.33,7.68-17.62,2.26,8.65-5.42,8.84-8.58-4.1-3.39-6.81-1.81-5.87,5.2-9,5.2-3.61-2.26-3.61-2.26" transform="translate(-8.27 -10.27)"/><path class="cls-2" d="M233.45,167.41s6.81-7,3.88-12.47-9.9,11.77-15.78,8.14,6.27-8.05,5.38-11.09-5-1.78-7,.63-3.74,6.89-6.72,8-4.17-.89-4.17-.89" transform="translate(-8.27 -10.27)"/><path class="cls-5" d="M246.15,131.72s-3.42-7.62.5-11.12,4.53,12.31,10.3,11.11-2.7-8.28-1.1-10.45,4.53,0,5.45,2.54,1,6.61,3.08,8.34,3.6.5,3.6.5" transform="translate(-8.27 -10.27)"/><path class="cls-4" d="M106.88,71.06l37.95,20.33L162,74.45s9.26-16,3.84-20.55S136,37.63,133.53,37.63,113.43,54.58,111.85,58,106.88,71.06,106.88,71.06Z" transform="translate(-8.27 -10.27)"/><path class="cls-4" d="M150.59,41.93,182,47.35s4.07-7,4.07-9.71,0-18.3-2.48-21.23S156,9.18,154.2,10.53,149,21.15,149,23,150.59,41.93,150.59,41.93Z" transform="translate(-8.27 -10.27)"/><path class="cls-4" d="M163.12,79.87l34.33,18.3,15.81-16.49s5.2-10.84,5.2-15.36-28-17.62-31.17-17.84S169.23,63.84,167.53,67,163.12,79.87,163.12,79.87Z" transform="translate(-8.27 -10.27)"/><path class="cls-2" d="M198.58,77.39s8.81-4.29,7.91-10.39-13.33,7.68-17.62,2.26,8.65-5.42,8.84-8.58-4.1-3.39-6.81-1.81-5.87,5.2-9,5.2-3.61-2.26-3.61-2.26" transform="translate(-8.27 -10.27)"/><path class="cls-2" d="M148.19,64.95s6.81-7,3.88-12.47-9.9,11.77-15.78,8.14,6.27-8.05,5.38-11.09-5-1.78-7,.63-3.74,6.89-6.72,8-4.17-.89-4.17-.89" transform="translate(-8.27 -10.27)"/><path class="cls-5" d="M160.89,29.26s-3.42-7.62.5-11.12,4.53,12.31,10.3,11.11S169,21,170.59,18.79s4.53,0,5.45,2.54,1,6.61,3.08,8.34,3.6.5,3.6.5" transform="translate(-8.27 -10.27)"/></svg>