<svg id="Layer_1" data-name="Layer 1" xmlns="http://www.w3.org/2000/svg" viewBox="0 0 308.7 197.3"><title>Artboard 1</title><polygon points="131.3 87.1 112.1 96.4 108.7 100 137.1 128 150 106.3 143.1 99.2 131.3 87.1" fill="#3b2517"/><line x1="131.9" y1="109.4" x2="147" y2="98.8" fill="none" stroke="#fff" stroke-miterlimit="10" stroke-width="1.81"/><polygon points="139.2 103 137.1 107.9 135.3 158.8 167.8 166.3 167.8 162.4 169.3 110.9 139.2 103" fill="#3b2517" stroke="#fff" stroke-miterlimit="10" stroke-width="1.81"/><line x1="141.1" y1="131.6" x2="162.8" y2="134.7" fill="none" stroke="#fff" stroke-miterlimit="10" stroke-width="1.81"/><polygon points="117.6 111.2 135.6 129.5 135.6 133.2 107.3 146.4 89.3 128.8 91.7 119.9 117.6 111.2" fill="#3b2517" stroke="#fff" stroke-miterlimit="10" stroke-width="1.81"/><polygon points="269.8 19.9 250.6 29.2 247.3 32.8 275.6 60.8 288.5 39.1 281.6 31.9 269.8 19.9" fill="#3b2517"/><line x1="270.5" y1="42.1" x2="285.5" y2="31.6" fill="none" stroke="#fff" stroke-miterlimit="10" stroke-width="1.81"/><polygon points="277.7 35.8 275.6 40.6 273.8 91.5 306.3 99.1 306.3 95.2 307.8 43.6 277.7 35.8" fill="#3b2517" stroke="#fff" stroke-miterlimit="10" stroke-width="1.81"/><line x1="279.6" y1="64.4" x2="301.3" y2="67.4" fill="none" stroke="#fff" stroke-miterlimit="10" stroke-width="1.81"/><polygon points="256.1 44 274.1 62.3 274.1 65.9 245.8 79.2 227.8 61.6 230.2 52.7 256.1 44" fill="#3b2517" stroke="#fff" stroke-miterlimit="10" stroke-width="1.81"/><polygon points="43.1 6.5 23.8 15.8 20.5 19.4 48.8 47.4 61.8 25.8 54.8 18.6 43.1 6.5" fill="#3b2517"/><line x1="43.7" y1="28.8" x2="58.7" y2="18.2" fill="none" stroke="#fff" stroke-miterlimit="10" stroke-width="1.81"/><polygon points="50.9 22.4 48.8 27.3 47 78.2 79.5 85.7 79.5 81.8 81 30.3 50.9 22.4" fill="#3b2517" stroke="#fff" stroke-miterlimit="10" stroke-width="1.81"/><line x1="52.8" y1="51" x2="74.5" y2="54.1" fill="none" stroke="#fff" stroke-miterlimit="10" stroke-width="1.81"/><polygon points="29.3 30.6 47.4 48.9 47.4 52.5 19.1 65.8 1 48.2 3.4 39.3 29.3 30.6" fill="#3b2517" stroke="#fff" stroke-miterlimit="10" stroke-width="1.81"/><path d="M.9,170.2l37.9,20.3L56,173.5s9.3-16,3.8-20.6S30,136.7,27.5,136.7,7.4,153.7,5.8,157.1.9,170.2.9,170.2Z" fill="#8b603c"/><path d="M44.6,141,76,146.4s4.1-7,4.1-9.7,0-18.3-2.5-21.2-27.6-7.2-29.4-5.9S43,120.2,43,122,44.6,141,44.6,141Z" fill="#8b603c"/><path d="M57.1,179l34.3,18.3,15.8-16.5s5.2-10.8,5.2-15.4-28-17.6-31.2-17.8-18.1,15.4-19.8,18.6S57.1,179,57.1,179Z" fill="#8b603c"/><path d="M92.6,176.5s8.8-4.3,7.9-10.4-13.3,7.6-17.6,2.3,8.7-5.4,8.9-8.6-4.1-3.4-6.8-1.8-5.9,5.2-9,5.2-3.6-2.3-3.6-2.3" fill="none" stroke="#fff" stroke-miterlimit="10" stroke-width="1.81"/><path d="M42.2,164.1s6.8-7,3.9-12.5-9.9,11.8-15.8,8.1,6.3-8.1,5.4-11.1-5-1.8-7,.6-3.7,6.9-6.7,8-4.2-.9-4.2-.9" fill="none" stroke="#fff" stroke-miterlimit="10" stroke-width="1.81"/><path d="M54.9,128.4s-3.4-7.6.5-11.1,4.5,12.3,10.3,11.1-2.7-8.3-1.1-10.4,4.5,0,5.4,2.5,1,6.6,3.1,8.3,3.6.5,3.6.5" fill="none" stroke="#fff" stroke-miterlimit="10" stroke-width="1.54"/><path d="M183.9,163.3l37.9,20.3L239,166.6s9.3-16,3.8-20.6-29.8-16.3-32.3-16.3-20.1,16.9-21.7,20.3S183.9,163.3,183.9,163.3Z" fill="#8b603c"/><path d="M227.6,134.1l31.4,5.4s4.1-7,4.1-9.7,0-18.3-2.5-21.2-27.6-7.2-29.4-5.9-5.2,10.6-5.2,12.4S227.6,134.1,227.6,134.1Z" fill="#8b603c"/><path d="M240.1,172.1l34.3,18.3,15.8-16.5s5.2-10.8,5.2-15.4-28-17.6-31.2-17.8-18.1,15.4-19.8,18.5S240.1,172.1,240.1,172.1Z" fill="#8b603c"/><path d="M275.6,169.6s8.8-4.3,7.9-10.4-13.3,7.7-17.6,2.3,8.6-5.4,8.8-8.6-4.1-3.4-6.8-1.8-5.9,5.2-9,5.2-3.6-2.3-3.6-2.3" fill="none" stroke="#fff" stroke-miterlimit="10" stroke-width="1.81"/><path d="M225.2,157.1s6.8-7,3.9-12.5-9.9,11.8-15.8,8.1,6.3-8.1,5.4-11.1-5-1.8-7,.6-3.7,6.9-6.7,8-4.2-.9-4.2-.9" fill="none" stroke="#fff" stroke-miterlimit="10" stroke-width="1.81"/><path d="M237.9,121.5s-3.4-7.6.5-11.1,4.5,12.3,10.3,11.1-2.7-8.3-1.1-10.4,4.5,0,5.5,2.5,1,6.6,3.1,8.3,3.6.5,3.6.5" fill="none" stroke="#fff" stroke-miterlimit="10" stroke-width="1.54"/><path d="M98.6,60.8l38,20.3,17.2-16.9s9.3-16,3.8-20.5-29.8-16.3-32.3-16.3-20.1,17-21.7,20.4S98.6,60.8,98.6,60.8Z" fill="#8b603c"/><path d="M142.3,31.7l31.4,5.4s4.1-7,4.1-9.7,0-18.3-2.5-21.2S147.7-1.1,145.9.3s-5.2,10.6-5.2,12.5S142.3,31.7,142.3,31.7Z" fill="#8b603c"/><path d="M154.8,69.6l34.3,18.3L205,71.4s5.2-10.8,5.2-15.4-28-17.6-31.2-17.8S161,53.6,159.3,56.7,154.8,69.6,154.8,69.6Z" fill="#8b603c"/><path d="M190.3,67.1s8.8-4.3,7.9-10.4-13.3,7.7-17.6,2.3,8.6-5.4,8.8-8.6-4.1-3.4-6.8-1.8-5.9,5.2-9,5.2-3.6-2.3-3.6-2.3" fill="none" stroke="#fff" stroke-miterlimit="10" stroke-width="1.81"/><path d="M139.9,54.7s6.8-7,3.9-12.5S133.9,54,128,50.3s6.3-8,5.4-11.1-5-1.8-7,.6-3.7,6.9-6.7,8-4.2-.9-4.2-.9" fill="none" stroke="#fff" stroke-miterlimit="10" stroke-width="1.81"/><path d="M152.6,19s-3.4-7.6.5-11.1,4.5,12.3,10.3,11.1-2.7-8.3-1.1-10.5,4.5,0,5.4,2.5,1,6.6,3.1,8.3,3.6.5,3.6.5" fill="none" stroke="#fff" stroke-miterlimit="10" stroke-width="1.54"/></svg>